<svg id="圖層_1" data-name="圖層 1" xmlns="http://www.w3.org/2000/svg" viewBox="0 0 283.46 283.46"><defs><style>.cls-1{fill:#fff;}</style></defs><path class="cls-1" d="M179.84,50.09c8.65-8.92,20.88-11.72,55.77-12.86-55.16-1.79-53.7-7.73-71-35.48,3.84,11.54,2.72,20.72-3.06,25.74-7.47-5.08-10.48-14.89-21.47-25.74,5.67,10.08,5.23,19.29.65,24.47-6.85-5.27-10.38-15-22.55-24.47,8,10.13,7.39,20.13,2.09,25.26-8-5.2-11.49-15.84-26.62-25.26,18.69,24.71,5.06,34-45.84,35.48,22.93.66,38.27,2.93,46.54,7.46-18.76,8.26-31.31,24.43-30,44,.57,8.77.87,19.25-4.64,33a62.5,62.5,0,0,1-10.21,16.87c8.27,4.8,9.77,8,9.51,10.06-.29,2.38-.27,5.66-3.24,10a1.54,1.54,0,0,0,0,1.08,69.84,69.84,0,0,1-.19,33.3c-1.05,4.23-.07,6.55.69,7.72,5.71,8.8,28.12-13.59,40.38-7.83a43,43,0,0,1,18,16.12c7.91,11.41,10.59,29.47,5.9,48a69.32,69.32,0,0,1-11.66,24.8,124.57,124.57,0,0,0,25.75-11.65c26.43-16,34-35.62,34.37-36.63,1.05-2.88.5-2.16,4.23-22.64,4.08-22.33,5.28-34.05,8.8-41.6,5-10.82,11.16-21,16.33-31.74C211.52,110.17,211.14,70.46,179.84,50.09ZM73.17,116.43a5.46,5.46,0,0,1-.57-1.5c.27.48.57,1,.9,1.45A2.47,2.47,0,0,0,73.17,116.43Zm33.43,50.48L101.05,149c-.12-.06-.12-.09,0-.09l0,.09c1.75.71,24.37,6.21,32.23,5.27,3.21-.71,6.44,8.67,13,15.26,6,7,15.46,11.23,19.11,10.64C173.07,181.16,116.47,187,106.6,166.91Zm56.26-43.4c-13.76,17.67-25.65,26.35-27.79,19.59-2.32-7.07-2.47-23.9,2.87-35,5.64-11.3,29.22-20.94,29.11-20.67-.24,0,3.72,2.71,4.3,9.72C172.2,103.87,169.66,114.8,162.86,123.51Z"/></svg>