<svg id="圖層_1" data-name="圖層 1" xmlns="http://www.w3.org/2000/svg" xmlns:xlink="http://www.w3.org/1999/xlink" viewBox="0 0 283.46 283.46"><defs><style>.cls-1{fill:#fff;}.cls-2{clip-path:url(#clip-path);}.cls-3{isolation:isolate;}.cls-4{clip-path:url(#clip-path-2);}.cls-5{clip-path:url(#clip-path-3);}.cls-6{clip-path:url(#clip-path-4);}.cls-7{clip-path:url(#clip-path-5);}.cls-8{clip-path:url(#clip-path-6);}</style><clipPath id="clip-path"><path class="cls-1" d="M144.12,10.86,166.1,3c-6.79,2.44-12.1,21.37-12.27,45.3,0,4.86.14,9.6.51,14.1l-22,7.9c-.36-4.5-.54-9.23-.51-14.1C132,32.22,137.33,13.3,144.12,10.86Z"/></clipPath><clipPath id="clip-path-2"><path class="cls-1" d="M108.69,85.36l21-10.55c-.56.29-1.12.58-1.66.88L107,86.23C107.57,85.93,108.13,85.64,108.69,85.36Z"/></clipPath><clipPath id="clip-path-3"><path class="cls-1" d="M98.3,103.2l-21,10.54A166.28,166.28,0,0,1,65,89.89q-2-4.8-3.71-9.43l21-10.54q1.68,4.62,3.71,9.43A166.28,166.28,0,0,0,98.3,103.2Z"/></clipPath><clipPath id="clip-path-4"><path class="cls-1" d="M77.12,74.17l-21,10.54a9.28,9.28,0,0,1-2.9.94,7.29,7.29,0,0,1-4.7-.85c-6.64-3.65-8.95-16.9-5.17-29.59,2.4-8.1,6.71-14,11.23-16.28l21-10.54c-4.52,2.27-8.83,8.18-11.23,16.28-3.78,12.69-1.46,25.94,5.17,29.59a7.35,7.35,0,0,0,4.7.85A9.54,9.54,0,0,0,77.12,74.17Z"/></clipPath><clipPath id="clip-path-5"><path class="cls-1" d="M102.93,174.36,82,184.9a109.53,109.53,0,0,1-7.6-20.59c-5.22-20.16-3.61-37.52,3-50.57l21-10.54c-6.58,13-8.19,30.41-3,50.57A109.53,109.53,0,0,0,102.93,174.36Z"/></clipPath><clipPath id="clip-path-6"><path class="cls-1" d="M199.82,258.25l-21,10.54A58.57,58.57,0,0,1,161,274.36c-35.22,5.11-71.44-20.34-80.9-56.85-3.39-13.07-2.39-23.88,1.89-32.61l21-10.54C98.65,183.09,97.66,193.9,101,207c9.46,36.51,45.68,62,80.9,56.84A58.56,58.56,0,0,0,199.82,258.25Z"/></clipPath></defs><path class="cls-1" d="M144.12,10.86,166.1,3c-6.79,2.44-12.1,21.37-12.27,45.3,0,4.86.14,9.6.51,14.1l-22,7.9c-.36-4.5-.54-9.23-.51-14.1C132,32.22,137.33,13.3,144.12,10.86Z"/><g class="cls-2"><g class="cls-3"><path class="cls-1" d="M154.34,62.35l-22,7.9c-.36-4.5-.54-9.23-.51-14.1.17-23.93,5.49-42.85,12.28-45.29L166.1,3c-6.79,2.44-12.1,21.37-12.27,45.3,0,4.86.14,9.6.51,14.1"/></g></g><path class="cls-1" d="M108.69,85.36l21-10.55c-.56.29-1.12.58-1.66.88L107,86.23C107.57,85.93,108.13,85.64,108.69,85.36Z"/><g class="cls-4"><g class="cls-3"><path class="cls-1" d="M128,75.69,107,86.23c.54-.3,1.1-.59,1.66-.87l21-10.55c-.56.29-1.12.58-1.66.88"/></g></g><path class="cls-1" d="M98.3,103.2l-21,10.54A166.28,166.28,0,0,1,65,89.89q-2-4.8-3.71-9.43l21-10.54q1.68,4.62,3.71,9.43A166.28,166.28,0,0,0,98.3,103.2Z"/><g class="cls-5"><g class="cls-3"><path class="cls-1" d="M98.3,103.2l-21,10.54A166.28,166.28,0,0,1,65,89.89q-2-4.8-3.71-9.43l21-10.54q1.68,4.62,3.71,9.43A166.28,166.28,0,0,0,98.3,103.2"/></g></g><path class="cls-1" d="M77.12,74.17l-21,10.54a9.28,9.28,0,0,1-2.9.94,7.29,7.29,0,0,1-4.7-.85c-6.64-3.65-8.95-16.9-5.17-29.59,2.4-8.1,6.71-14,11.23-16.28l21-10.54c-4.52,2.27-8.83,8.18-11.23,16.28-3.78,12.69-1.46,25.94,5.17,29.59a7.35,7.35,0,0,0,4.7.85A9.54,9.54,0,0,0,77.12,74.17Z"/><g class="cls-6"><g class="cls-3"><path class="cls-1" d="M77.12,74.17l-21,10.54a9.28,9.28,0,0,1-2.9.94,7.29,7.29,0,0,1-4.7-.85c-6.64-3.65-8.95-16.9-5.17-29.59,2.4-8.1,6.71-14,11.23-16.28l21-10.54c-4.52,2.27-8.83,8.18-11.23,16.28-3.78,12.69-1.46,25.94,5.17,29.59a7.35,7.35,0,0,0,4.7.85,9.54,9.54,0,0,0,2.9-.94"/></g></g><path class="cls-1" d="M102.93,174.36,82,184.9a109.53,109.53,0,0,1-7.6-20.59c-5.22-20.16-3.61-37.52,3-50.57l21-10.54c-6.58,13-8.19,30.41-3,50.57A109.53,109.53,0,0,0,102.93,174.36Z"/><g class="cls-7"><g class="cls-3"><path class="cls-1" d="M102.93,174.36,82,184.9a109.53,109.53,0,0,1-7.6-20.59c-5.22-20.16-3.61-37.52,3-50.57l21-10.54c-6.58,13-8.19,30.41-3,50.57a109.53,109.53,0,0,0,7.6,20.59"/></g></g><path class="cls-1" d="M199.82,258.25l-21,10.54A58.57,58.57,0,0,1,161,274.36c-35.22,5.11-71.44-20.34-80.9-56.85-3.39-13.07-2.39-23.88,1.89-32.61l21-10.54C98.65,183.09,97.66,193.9,101,207c9.46,36.51,45.68,62,80.9,56.84A58.56,58.56,0,0,0,199.82,258.25Z"/><g class="cls-8"><g class="cls-3"><path class="cls-1" d="M199.82,258.25l-21,10.54A58.57,58.57,0,0,1,161,274.36c-35.22,5.11-71.44-20.34-80.9-56.85-3.39-13.07-2.39-23.88,1.89-32.61l21-10.54C98.65,183.09,97.66,193.9,101,207c9.46,36.51,45.68,62,80.9,56.84a58.56,58.56,0,0,0,17.88-5.56"/></g></g><path class="cls-1" d="M191.52,136.68c1.63,5.49.4,10.7-2.73,11.63s-7-2.78-8.63-8.27-.39-10.7,2.74-11.63S189.9,131.19,191.52,136.68Z"/><path class="cls-1" d="M157.13,146.85c1.63,5.5.4,10.7-2.73,11.63s-7-2.77-8.63-8.27-.4-10.7,2.74-11.63S155.51,141.36,157.13,146.85Z"/><path class="cls-1" d="M195.28,108.65c1.63,5.49.4,10.7-2.73,11.62s-7-2.77-8.63-8.26-.4-10.7,2.74-11.63S193.66,103.15,195.28,108.65Z"/><path class="cls-1" d="M161.79,118.55c1.62,5.5.4,10.7-2.74,11.63s-7-2.77-8.62-8.27-.4-10.7,2.73-11.62S160.16,113.06,161.79,118.55Z"/><path class="cls-1" d="M149.27,122.15c1.63,5.49.4,10.7-2.73,11.63s-7-2.78-8.63-8.27-.4-10.7,2.74-11.63S147.65,116.66,149.27,122.15Z"/><path class="cls-1" d="M239.63,180.56c-3.38-13.07-9.7-22.82-18-29.72a102.69,102.69,0,0,0-3.23-21.22C213,109.07,202.58,93.22,189.62,83a144.06,144.06,0,0,0-.51-24.88C186.39,31,177.74,8.61,169.8,8.07a4.39,4.39,0,0,0-.89,0c-7.36,1.07-11.17,22-8.54,48,.5,5,1.2,9.78,2.06,14.32a54.84,54.84,0,0,0-17.58-.3A48.89,48.89,0,0,0,128,75.69c-1.49-4.53-3.28-9.27-5.33-14.11C112.1,36.69,98.13,18.38,90.62,19.47a7.85,7.85,0,0,0-1.08.08c-5.5.8-11.22,7.4-14.13,17.22-3.78,12.69-1.47,25.94,5.17,29.59a7.36,7.36,0,0,0,4.7.86c2.74-.4,5.54-2.24,8-5.2Q95,66.64,97,71.45A167.31,167.31,0,0,0,109.35,95.3c-6.57,13-8.18,30.42-3,50.57a109.53,109.53,0,0,0,7.6,20.59c-4.28,8.73-5.28,19.54-1.89,32.61,9.46,36.51,45.68,62,80.9,56.85S249.09,217.06,239.63,180.56Zm-95.56-35.8-.06,0c-6.27,1.85-13.92-5.32-17.09-16s-.64-20.88,5.63-22.74,13.93,5.32,17.09,16a33.88,33.88,0,0,1,1.13,5.39l.06,0a7.58,7.58,0,0,1,1.17-.24,33.83,33.83,0,0,1-2-5.23c-3.17-10.7-.65-20.88,5.63-22.73s13.93,5.31,17.09,16a34.34,34.34,0,0,1,1.13,5.41c.18-.06.36-.13.55-.18a3.15,3.15,0,0,1,.44-.11,34.23,34.23,0,0,1-2-5.15c-3.16-10.71-.64-20.89,5.63-22.74s13.93,5.31,17.09,16,.65,20.88-5.62,22.73a3.54,3.54,0,0,1-.44.11,34.21,34.21,0,0,1,2,5.15c3.17,10.71.65,20.89-5.63,22.74s-13.92-5.31-17.09-16a34.22,34.22,0,0,1-1.13-5.42,5.1,5.1,0,0,1-.55.19,6.56,6.56,0,0,1-1.17.24,33.83,33.83,0,0,1,2,5.23c3.17,10.7.65,20.88-5.63,22.74s-13.92-5.32-17.09-16A34.11,34.11,0,0,1,144.07,144.76Zm37.52,33.09c-4.67,1.38-9.12.25-9.94-2.53s2.29-6.16,7-7.54,9.12-.25,9.94,2.54S186.26,176.47,181.59,177.85Zm24.2,57.8c-19.56,9-45.34-5.19-57.57-31.73-1.08-2.35,69.77-35,70.85-32.65C231.3,197.81,225.35,226.64,205.79,235.65Z"/><path class="cls-1" d="M189.23,182.89l-12.91,6c-3.66,1.69-5.63,5.32-4.36,8.06s5.3,3.61,9,1.92l3.83-1.77-.61-4.79-.62-4.79,3.24,3.58,3.24,3.59,3.83-1.77c3.67-1.69,5.63-5.32,4.37-8.06S192.9,181.2,189.23,182.89Z"/><path class="cls-1" d="M213.93,207.29c-5-1-11.92,4.18-15.91,11.66-8.27-1.83-16.68.08-19.19,4.52-2.65,4.67,2.24,10.38,10.92,12.73a27.75,27.75,0,0,0,12,.63,10.58,10.58,0,0,0,4-1.16,10.73,10.73,0,0,0,3.48-2.28,27.81,27.81,0,0,0,7.3-9.52C220.37,215.74,219.21,208.31,213.93,207.29Z"/></svg>