<svg id="圖層_1" data-name="圖層 1" xmlns="http://www.w3.org/2000/svg" viewBox="0 0 283.46 283.46"><defs><style>.cls-1{fill:#fff;}</style></defs><path class="cls-1" d="M274.15,120c.87,0,1.3.09,2.15.18.55.05,1.14.08,1.76.11-.09-.65-.14-1-.23-1.6a2.63,2.63,0,0,0-2-2.21,37.41,37.41,0,0,0-4.65-.34c0-.57,0-.85,0-1.4a.69.69,0,0,0-.63-.72c-.47,0-.7,0-1.17,0a.7.7,0,0,0-.63.72l-.05,1.4a37.63,37.63,0,0,0-4.42.37,2.64,2.64,0,0,0-2,2.21c-.1.64-.15,1-.24,1.61.47,0,1-.05,1.66-.12.81-.09,1.22-.13,2-.19,0-.43.05-.65.08-1.08s0-.67.06-1.13a3.9,3.9,0,0,1,1,0c.45,0,.67.13.67.28a1.81,1.81,0,0,0-.36.94l-.05,1a50.63,50.63,0,0,1,5.51,0l0-1.08c0-.3,0-.68-.09-1.15a4.18,4.18,0,0,1,1,.09c.46.09.7.22.71.37a1.45,1.45,0,0,0-.24.89C274.11,119.45,274.12,119.64,274.15,120Z"/><path class="cls-1" d="M263,130.93a2.55,2.55,0,0,0-2.21,2.43c-.13,2.21-.19,3.33-.27,5.62a29.4,29.4,0,0,0,4.49-2.16,16.88,16.88,0,0,0,4-3.13h1.67a21,21,0,0,0,4.62,3.22,28.56,28.56,0,0,0,4.32,1.86c-.08-2.21-.13-3.3-.26-5.43a2.52,2.52,0,0,0-2.2-2.43c-2.24-.11-3.38-.14-5.69-.16,0-1.38,0-2.07,0-3.41,2.24,0,3.35.07,5.52.2a1.72,1.72,0,0,0,1.77-2.06c-.14-1.33-.21-2-.37-3.25a15.3,15.3,0,0,0-1.83-.27c-.88-.08-1.33-.11-2.22-.16,0,.55.05.82.08,1.38a12.81,12.81,0,0,0,.14,1.41c0,.08-.3.1-.81.08s-.82-.07-.85-.14a12.69,12.69,0,0,0,0-1.41l-.05-1.39c-2.25-.08-3.42-.08-5.66,0,0,.55,0,.83-.07,1.39a12.69,12.69,0,0,0,0,1.41c0,.07-.31.11-.83.14s-.81,0-.83-.07q.09-.54.15-1.41c0-.55.05-.83.09-1.38-.85,0-1.27.09-2.11.17a14,14,0,0,0-1.73.28c-.17,1.27-.24,1.91-.39,3.23a1.71,1.71,0,0,0,1.76,2c2.07-.13,3.12-.17,5.25-.21,0,1.34,0,2-.06,3.41C266.17,130.78,265.08,130.82,263,130.93Z"/><path class="cls-1" d="M279.64,149.76a2.29,2.29,0,0,0-2.13-2.47c-2.37,0-3.58,0-6,0v-3.75l6,0a2.28,2.28,0,0,0,2.13-2.46c0-.32,0-.47,0-.79a33.12,33.12,0,0,1-5.27-2.31,19.76,19.76,0,0,1-4.45-3.11,18.7,18.7,0,0,1-4.11,3.05,34.4,34.4,0,0,1-5.36,2.51c0,.26,0,.39,0,.65a2.26,2.26,0,0,0,2.12,2.46l5.72,0v3.75l-5.72,0a2.28,2.28,0,0,0-2.13,2.46c0,.46,0,.69,0,1.14,3.37.08,5.1.1,8.61.11v-1a7.75,7.75,0,0,0-.09-1.26,13.3,13.3,0,0,1,1.66,0c.7,0,1.06.14,1.06.26a1.47,1.47,0,0,0-.57,1.08V151c3.47,0,5.18,0,8.51-.1C279.63,150.44,279.63,150.21,279.64,149.76Z"/><path class="cls-1" d="M279.43,155.66c.06-1.14.08-1.71.13-2.87-3.32.1-5,.12-8.46.13,0,1.11,0,1.66,0,2.75a21.18,21.18,0,0,0,.17,3,3.33,3.33,0,0,1-1.18.1,2.71,2.71,0,0,1-1.1-.1,9.58,9.58,0,0,0,.1-1.51c0-1.69,0-2.54,0-4.28-3.49,0-5.21,0-8.56-.14.05,1.34.08,2,.16,3.33.35-.2.7-.4,1-.62a9.88,9.88,0,0,0,2.22-2,7.3,7.3,0,0,1,1.47.51c.47.22.66.37.59.46a.63.63,0,0,1-.33.15,1.2,1.2,0,0,0-.62.36,14.92,14.92,0,0,1-1.54,1.27,15.35,15.35,0,0,1-2.7,1.58,2.53,2.53,0,0,0,2.16,2.11c2.14.1,3.23.14,5.42.17.06,3.81.09,5.66.18,9.14,0,.29,0,.44,0,.73,0,.54,0,.81,0,1.35v0h0v0a.83.83,0,0,0,.07.27c.27,1,.4,1.54.64,2.54s.41,1.65.66,2.7c.23-1,.35-1.59.62-2.7s.36-1.49.61-2.53a.77.77,0,0,0,.07-.27v0h0s0,0,0,0c0-.53,0-.8,0-1.35v-.73c.06-3.48.08-5.33.12-9.15,2.31,0,3.45,0,5.7-.16a2.51,2.51,0,0,0,2.18-2.24,15.9,15.9,0,0,0-2.13-1.6c-.95-.63-2-1.25-3.15-1.86l1.62-.81C277.19,154.28,278.44,155,279.43,155.66Z"/><path class="cls-1" d="M7.54,120.06c0-.43,0-.65.09-1.08s0-.67.06-1.13a3.87,3.87,0,0,1,1,0c.44,0,.67.13.66.28A1.71,1.71,0,0,0,9,119l0,1a50.46,50.46,0,0,1,5.5,0c0-.43,0-.65,0-1.08s0-.68-.09-1.15a4.22,4.22,0,0,1,1,.09c.46.09.69.22.7.37a1.44,1.44,0,0,0-.23.89c0,.38,0,.57.06,1,.87,0,1.3.09,2.16.18.55.05,1.13.08,1.75.11-.09-.65-.13-1-.23-1.6a2.62,2.62,0,0,0-2-2.21,37.25,37.25,0,0,0-4.64-.34c0-.57,0-.85,0-1.4a.68.68,0,0,0-.62-.72c-.47,0-.71,0-1.17,0a.71.71,0,0,0-.64.72l0,1.4a37.46,37.46,0,0,0-4.41.37,2.64,2.64,0,0,0-2,2.21c-.1.64-.15,1-.24,1.61q.69,0,1.65-.12C6.31,120.16,6.72,120.12,7.54,120.06Z"/><path class="cls-1" d="M10.74,133.69h1.68A21,21,0,0,0,17,136.91a28.9,28.9,0,0,0,4.31,1.86c-.07-2.21-.12-3.3-.25-5.43a2.53,2.53,0,0,0-2.2-2.43c-2.25-.11-3.39-.14-5.7-.16,0-1.38,0-2.07,0-3.41,2.24,0,3.34.07,5.52.2a1.73,1.73,0,0,0,1.77-2.06c-.14-1.33-.22-2-.37-3.25a15.5,15.5,0,0,0-1.84-.27c-.88-.08-1.32-.11-2.22-.16,0,.55,0,.82.09,1.38a10.75,10.75,0,0,0,.14,1.41c0,.08-.3.1-.82.08s-.82-.07-.85-.14a12.32,12.32,0,0,0,0-1.41l0-1.39c-2.26-.08-3.42-.08-5.67,0,0,.55,0,.83-.06,1.39a10.91,10.91,0,0,0,0,1.41c0,.07-.3.11-.82.14s-.81,0-.83-.07a12.81,12.81,0,0,0,.14-1.41l.1-1.38c-.85,0-1.28.09-2.12.17a13.89,13.89,0,0,0-1.72.28c-.17,1.27-.25,1.91-.39,3.23a1.71,1.71,0,0,0,1.76,2c2.06-.13,3.12-.17,5.24-.21,0,1.34,0,2,0,3.41-2.2,0-3.28.06-5.41.17a2.53,2.53,0,0,0-2.21,2.43c-.14,2.21-.19,3.33-.27,5.62a28.85,28.85,0,0,0,4.48-2.16A16.68,16.68,0,0,0,10.74,133.69Z"/><path class="cls-1" d="M10.83,150a10.94,10.94,0,0,0-.09-1.26,13.3,13.3,0,0,1,1.66,0c.7,0,1,.14,1,.26a1.47,1.47,0,0,0-.57,1.08V151c3.47,0,5.18,0,8.51-.1,0-.46,0-.69,0-1.14a2.29,2.29,0,0,0-2.13-2.47c-2.38,0-3.58,0-6,0v-3.75l6,0a2.29,2.29,0,0,0,2.13-2.46c0-.32,0-.47,0-.79A32.73,32.73,0,0,1,16.13,138a20.08,20.08,0,0,1-4.46-3.11A18.61,18.61,0,0,1,7.57,138a34.83,34.83,0,0,1-5.36,2.51c0,.26,0,.39,0,.65a2.27,2.27,0,0,0,2.13,2.46l5.72,0c0,1.49,0,2.26,0,3.75l-5.73,0a2.28,2.28,0,0,0-2.12,2.46c0,.46,0,.69,0,1.14,3.37.08,5.1.1,8.61.11Z"/><path class="cls-1" d="M10.32,169.27c0,.29,0,.44,0,.73,0,.54,0,.81,0,1.35v0h0v0a.83.83,0,0,0,.07.27l.64,2.54c.27,1.11.4,1.65.65,2.7.23-1,.36-1.59.62-2.7s.36-1.49.62-2.53a.77.77,0,0,0,.07-.27v0h0v0c0-.53,0-.8,0-1.35,0-.29,0-.43,0-.73.06-3.48.08-5.33.12-9.15,2.31,0,3.45,0,5.69-.16a2.52,2.52,0,0,0,2.19-2.24,17.34,17.34,0,0,0-2.13-1.6c-1-.63-2-1.25-3.16-1.86l1.63-.81c1.53.82,2.78,1.54,3.78,2.2.06-1.14.08-1.71.12-2.87-3.31.1-5,.12-8.46.13,0,1.11,0,1.66,0,2.75a22.6,22.6,0,0,0,.18,3,3.37,3.37,0,0,1-1.18.1,2.71,2.71,0,0,1-1.1-.1,10.94,10.94,0,0,0,.1-1.51c0-1.69,0-2.54,0-4.28-3.49,0-5.21,0-8.56-.14.05,1.34.08,2,.15,3.33.35-.2.7-.4,1-.62a9.81,9.81,0,0,0,2.21-2,7.39,7.39,0,0,1,1.48.51c.46.22.66.37.59.46a.68.68,0,0,1-.33.15,1.19,1.19,0,0,0-.63.36,13.92,13.92,0,0,1-1.54,1.27,15.64,15.64,0,0,1-2.69,1.58A2.52,2.52,0,0,0,4.72,160c2.14.1,3.22.14,5.42.17C10.19,163.94,10.23,165.79,10.32,169.27Z"/><path class="cls-1" d="M20.44,75.47a2.11,2.11,0,0,0,1.19-.77,6.66,6.66,0,0,0,1.18-2.09,21.11,21.11,0,0,1,2.32-3.75A49.19,49.19,0,0,1,30,63.18a10.61,10.61,0,0,0,1.87-2.31,2.26,2.26,0,0,0,.1-1.95.6.6,0,0,0-.95-.34,8.74,8.74,0,0,0-1.93,1.54c-.93.92-2,2-3.24,3.3s-2.56,2.73-4,4.33a15.39,15.39,0,0,0-2.12,3,6.08,6.08,0,0,0-.58,2.37,3.51,3.51,0,0,0,.37,1.85A1,1,0,0,0,20.44,75.47Z"/><path class="cls-1" d="M8.74,97.69a5.93,5.93,0,0,0,1.82-1.15,9.71,9.71,0,0,0,1.78-2.28A23.11,23.11,0,0,0,14,90.63a51,51,0,0,0,1.6-5.2c.25-.93.47-1.83.66-2.69s.37-1.87.58-3,.41-2.58.65-4.26.55-3.79,1-6.35c.17-1.19.36-2.24.56-3.16s.39-1.74.56-2.49a5,5,0,0,1,.5-1.38,2,2,0,0,1,1-.73c3.36-1.54,7-3.17,11-4.79s8-3.21,12.3-4.72a17.16,17.16,0,0,0,3.74-1.62,6.51,6.51,0,0,0,2-2.13,16.12,16.12,0,0,0,1.69-3.74A6.92,6.92,0,0,0,51.92,41c-.17-.56-.66-.62-1.49-.19-6.17,3.2-11.68,6.28-16.65,9s-9,5.17-12.24,7c-.26.13-.41.17-.46.13a.43.43,0,0,1-.08-.3,1.35,1.35,0,0,0-.28-1,1.67,1.67,0,0,0-.86-.55A3.18,3.18,0,0,0,18.74,55a2.35,2.35,0,0,0-1.1.39,11.48,11.48,0,0,0-3.12,2.9A3.28,3.28,0,0,0,14.34,61a12.57,12.57,0,0,1,.3,3.57,41.69,41.69,0,0,1-.46,4.88c-.26,1.78-.6,3.61-1,5.5s-.86,3.71-1.37,5.47c-.37,1.22-.8,2.59-1.29,4.13s-1,3.09-1.48,4.65-1,3-1.42,4.39S6.79,96,6.47,96.83s-.24,1.08,0,1.27S7.51,98.15,8.74,97.69Z"/><path class="cls-1" d="M35.11,79.15c-.38.7-.47,1.2-.3,1.51s.77.37,1.77.19a4.63,4.63,0,0,0,2.25-1.45,16.08,16.08,0,0,0,2.41-3.79,18.7,18.7,0,0,0,2.3-7.47,12.85,12.85,0,0,0-1.27-6.27,6.92,6.92,0,0,0-1.52-2.22,2.31,2.31,0,0,0-1.91-.39c-1.68.26-2.67,1-2.92,2.07a5.31,5.31,0,0,1-.6,1.11,7.81,7.81,0,0,1-1.09,1.36q-2,2.06-3.6,3.8c-1,1.16-2,2.29-2.9,3.4s-1.76,2.24-2.6,3.4-1.74,2.46-2.69,3.92a12.46,12.46,0,0,1-1.88,2.25,4.57,4.57,0,0,0-1.22,2,5.88,5.88,0,0,0-.4,2.67,2.33,2.33,0,0,0,.71,1.75,1.43,1.43,0,0,0,1.32.17,3.5,3.5,0,0,0,1.43-1,5.37,5.37,0,0,0,1.1-1.82q.16-.42.51-1.2c.23-.52.48-1.07.76-1.65s.55-1.11.82-1.61.48-.83.62-1c1-1.51,1.86-2.79,2.63-3.87s1.51-2,2.2-2.9,1.37-1.68,2.07-2.46,1.48-1.61,2.36-2.48A1.72,1.72,0,0,1,37,66.44a1.36,1.36,0,0,1,1,.91c.52,1,.51,2.55,0,4.66A29.06,29.06,0,0,1,35.11,79.15Z"/><path class="cls-1" d="M87.77,15a5.65,5.65,0,0,0,3.29-.15,15.46,15.46,0,0,0,3.81-2c.3-.19.91-.59,1.84-1.16s1.76-1,2.48-1.41c1-.52,1.88-1,2.54-1.4a3.26,3.26,0,0,1,1-.4,10.35,10.35,0,0,1,3.94-.57c.51.15.58.51.21,1.09a2.41,2.41,0,0,1-.54.61c-.25.22-.64.51-1.15.87a3.33,3.33,0,0,1-1.29.57,35.93,35.93,0,0,0-3.68,1.09c-1.17.42-2.26.83-3.25,1.23a2.75,2.75,0,0,1-.51.09H95.9a4.28,4.28,0,0,0-1.45.14,6.67,6.67,0,0,0-1.46.59,3.58,3.58,0,0,0-2,2.28,2.2,2.2,0,0,0,.8,2.11,7.29,7.29,0,0,1,.69.72c.17.22.34.45.5.7a5.76,5.76,0,0,1,.46.93c.15.37.31.81.48,1.33a4.41,4.41,0,0,0,1.39,2.31,1.8,1.8,0,0,0,1.83,0,5.48,5.48,0,0,0,1.62-1.19,1.44,1.44,0,0,1,.77-.55c.58-.28,1.16-.53,1.73-.76s1.19-.45,1.85-.66c.26-.07.42,0,.47.19a12.66,12.66,0,0,1-1.39,4.11,16.73,16.73,0,0,1-2.59,3.13,29.86,29.86,0,0,1-3.79,3.11,52,52,0,0,1-4.65,2.91A41.38,41.38,0,0,1,86,37.27c-.64.24-1,.6-1,1.08a1.79,1.79,0,0,0,.62,1.38,2.83,2.83,0,0,0,2.13.84,9,9,0,0,0,3-.57,19.53,19.53,0,0,0,3.47-1.68,35.34,35.34,0,0,0,3.55-2.42A45.55,45.55,0,0,0,102,32.27a27.36,27.36,0,0,0,3.15-3.65,21.73,21.73,0,0,0,2.21-3.93,29.55,29.55,0,0,0,1.53-4.52.67.67,0,0,1,.47-.42,5.53,5.53,0,0,1,.59-.18c.22,0,.37,0,.43.07a.25.25,0,0,1,.06.25,24.42,24.42,0,0,0-.67,3.85,9.19,9.19,0,0,0,.13,2.66,4.19,4.19,0,0,0,.76,1.7,2.75,2.75,0,0,0,1.22.89,19.36,19.36,0,0,0,1.87.68c.77.25,1.59.49,2.47.73s1.75.46,2.63.66a23.56,23.56,0,0,0,2.47.44c1.15.14,2.17.24,3.07.3a13.15,13.15,0,0,0,2.53-.06,8.67,8.67,0,0,0,2.35-.65,14.37,14.37,0,0,0,2.47-1.36c.87-.57,1.59-1.07,2.13-1.49A6.77,6.77,0,0,0,135.11,27a3.64,3.64,0,0,0,.61-1.31,6.3,6.3,0,0,0,.13-1.63c0-.44-.1-.7-.23-.76s-.42,0-.84.19A11.21,11.21,0,0,1,133,24c-.88.2-1.85.41-2.91.61l-3.19.6a24.23,24.23,0,0,1-2.62.38,30.51,30.51,0,0,1-7.45-.09c-1.62-.34-2.51-1.06-2.64-2.18a8.78,8.78,0,0,1,0-2.08,6.23,6.23,0,0,1,1-2.3.66.66,0,0,1,.3-.27,2.91,2.91,0,0,1,.39-.12c.51,0,.95,0,1.32,0s.8.07,1.27.13a3.1,3.1,0,0,0,1.76-.15,4.74,4.74,0,0,0,1.46-.88,4,4,0,0,0,1-1.29,4.06,4.06,0,0,0,.41-1.47,16.36,16.36,0,0,1,.14-1.73,4.4,4.4,0,0,1,.28-1.22,5,5,0,0,0,.4-2.09c0-.67-.53-1.24-1.51-1.71a3.9,3.9,0,0,0-2-.3,5.07,5.07,0,0,0-1.92.45,3.25,3.25,0,0,1-.84.3,12.13,12.13,0,0,1-1.67.13,39.17,39.17,0,0,0-4.36.45c-.14,0-.23,0-.26,0s0-.09.08-.15a15.88,15.88,0,0,1,1.39-.91,8.11,8.11,0,0,1,1.31-.61c1.07-.43,1.69-.85,1.88-1.28a1.08,1.08,0,0,0-.2-1.19,7.65,7.65,0,0,0-.75-.68,1.67,1.67,0,0,0-.62-.32,2,2,0,0,0-.73,0c-.27,0-.65.13-1.14.25a8.8,8.8,0,0,1-2.43.29A12.19,12.19,0,0,1,107.15,4a.87.87,0,0,1-.32-.23,3.2,3.2,0,0,1-.26-.28c-.25-.44-.76-.63-1.53-.56a5.34,5.34,0,0,0-2.17.44,8.67,8.67,0,0,0-2.19,1.64,29.74,29.74,0,0,1-5.49,4.19A48.06,48.06,0,0,1,88,12.49a1.51,1.51,0,0,0-1.11,1.31A1,1,0,0,0,87.77,15Zm15.56,3.47c-1,.25-1.75.45-2.41.59a12.3,12.3,0,0,1-1.77.28,1,1,0,0,1-.89-.28,3.6,3.6,0,0,1-.79-1.18,3.68,3.68,0,0,1-.3-1.23.74.74,0,0,1,.56-.64c.8-.31,1.58-.57,2.34-.79s1.66-.48,2.73-.75c.32-.08.51,0,.56.18a16.54,16.54,0,0,0,.21,1.69,12.2,12.2,0,0,1,.2,1.6C103.79,18.18,103.64,18.35,103.33,18.43Zm6.16-5.54c.79-.16,1.72-.34,2.77-.52s2.13-.37,3.21-.54a2.17,2.17,0,0,1,1.65.12c.25.22.25.75,0,1.58a2.73,2.73,0,0,1-.75,1.5,4.17,4.17,0,0,1-1.79.7l-2.55.56q-1.34.29-2.28.54c-.27.05-.43,0-.48-.27,0-.45,0-1-.1-1.58s-.11-1.12-.15-1.57C109,13.14,109.12,13,109.49,12.89Z"/><path class="cls-1" d="M70.46,24.64a9,9,0,0,1,1.7,1.91,30.59,30.59,0,0,1,1.67,2.76c.52,1,1,2,1.41,2.89a14.6,14.6,0,0,1,.86,2.33,10,10,0,0,0,1.14,2.69,4.06,4.06,0,0,0,1.35,1.36,2,2,0,0,0,1.32.3,1.83,1.83,0,0,0,1-.53,7,7,0,0,0,1.35-1.59.61.61,0,0,1,.15-.3,2.66,2.66,0,0,0,.23-.28,11,11,0,0,1,3-1.8,8.27,8.27,0,0,1,2.69-.53,4.52,4.52,0,0,0,1.83-.27A3.25,3.25,0,0,0,91.29,33a8.53,8.53,0,0,0,.62-.86,2,2,0,0,0,.27-.95A3.8,3.8,0,0,0,92,29.91a14.34,14.34,0,0,0-.69-1.86c-.37-.89-.75-1.86-1.12-2.93s-.7-2.11-1-3.11-.54-1.92-.74-2.74a17.42,17.42,0,0,1-.37-1.87,4.08,4.08,0,0,0-.73-2.33,4.26,4.26,0,0,0-1.6-1A3,3,0,0,0,84,13.86a7.77,7.77,0,0,0-2.18,1.2,4.1,4.1,0,0,1-.76.52,8.5,8.5,0,0,1-1.2.52c-.54.2-1.3.46-2.3.8s-2.34.8-4,1.43a5.35,5.35,0,0,1-1.18.32,4.4,4.4,0,0,0-2.39,1.44,3,3,0,0,0-.74,2.43A3.2,3.2,0,0,0,70.46,24.64Zm14.41,1.48a.45.45,0,0,1,.41,0,.61.61,0,0,1,.21.25c.22.54.41,1,.56,1.47a10.86,10.86,0,0,1,.32,1.06,1.68,1.68,0,0,1-.74,1.91A8.93,8.93,0,0,1,83.89,32a8.19,8.19,0,0,1-2.43.75.65.65,0,0,1-.77-.38c-.28-.51-.56-1-.83-1.57S79.3,29.7,79,29.16a.39.39,0,0,1,0-.42.84.84,0,0,1,.34-.26,23,23,0,0,1,2.78-1.37C83.08,26.74,84,26.41,84.87,26.12Zm-9.3-5.24a2,2,0,0,1,.33-.32c.88-.44,1.66-.8,2.33-1.11a18.86,18.86,0,0,1,1.84-.75,2.84,2.84,0,0,1,1.38-.21,1.42,1.42,0,0,1,1,.69,6.83,6.83,0,0,1,.52,1c.23.51.49,1.12.78,1.82.11.28,0,.5-.36.64-1.11.53-2.1,1-2.95,1.34s-1.76.73-2.75,1.1c-.23.07-.39.07-.47,0a.82.82,0,0,1-.2-.26c-.29-.62-.56-1.24-.82-1.85s-.49-1.2-.69-1.75A.31.31,0,0,1,75.57,20.88Z"/><path class="cls-1" d="M158.4,29.65a11.5,11.5,0,0,0,2.27,1.57,14.41,14.41,0,0,0,2.83,1.13,12.52,12.52,0,0,0,3.22.43,10.27,10.27,0,0,0,2.34-.33,3.86,3.86,0,0,0,1.61-.93,4.66,4.66,0,0,0,1.06-1.71,20.66,20.66,0,0,0,.76-2.68c.35-1.53.64-2.85.89-3.93s.5-2.14.78-3.17a1,1,0,0,1,.43-.64,4.47,4.47,0,0,1,1.18-.53,7.69,7.69,0,0,0,1.06-.28c.31-.1.63-.22.95-.35A7,7,0,0,0,179,17.6a1,1,0,0,0,.43-.55c.11-.4-.61-.65-2.13-.73a3.17,3.17,0,0,1-1.79-.41c-.23-.23-.26-.76-.07-1.6.15-.66.45-1.06.89-1.17a5.39,5.39,0,0,1,2.33.28,3.34,3.34,0,0,0,1.84.19,2.21,2.21,0,0,0,.9-1c.19-.34.2-.62,0-.82A4.6,4.6,0,0,0,180,11a5.83,5.83,0,0,0-.93-.36l-1.09-.33c-.83-.26-1.16-.72-1-1.38a8.51,8.51,0,0,0,.33-1c.12-.38.24-.75.37-1.1A4.8,4.8,0,0,0,178,4a2.89,2.89,0,0,0-1.71-1.63,5.51,5.51,0,0,0-3.91-.48A1.92,1.92,0,0,0,171,4a8.85,8.85,0,0,1,.07,1.48,17.14,17.14,0,0,1-.16,2.27.78.78,0,0,1-.53.68,6.3,6.3,0,0,1-1.89,0,16.52,16.52,0,0,1-2.31-.35,2.22,2.22,0,0,1-.9-.42,2.15,2.15,0,0,0-1.75-.45,8.68,8.68,0,0,0-3.12,1.15,2.19,2.19,0,0,0-1.07,1,1.32,1.32,0,0,0,0,1.07,1.76,1.76,0,0,0,.87.8,2.83,2.83,0,0,0,1.51.21c1.22-.12,2.33-.2,3.35-.24a34.85,34.85,0,0,1,3.68.1,1.1,1.1,0,0,1,1,.52,2.84,2.84,0,0,1,0,1.75,10.06,10.06,0,0,1-.31,1.28A1.52,1.52,0,0,1,168.26,16a9,9,0,0,1-1.26.12c-1,0-2.06.08-3.07.14s-2,.15-3,.26c-1.83.22-3,.69-3.53,1.38a1.35,1.35,0,0,0,.25,2,5.29,5.29,0,0,0,2.12,1.41,5.37,5.37,0,0,0,2.51-.16c.93-.21,1.73-.37,2.41-.47s1.35-.18,2.05-.24a3.15,3.15,0,0,1,1.29.05c.22.09.31.22.27.38-.23.76-.46,1.64-.69,2.65s-.47,2-.73,2.89a1.54,1.54,0,0,1-.95.9,4.94,4.94,0,0,1-2,.41,12.58,12.58,0,0,1-2.68-.22,14.86,14.86,0,0,1-3.1-.92c-.7-.29-1.18-.32-1.44-.11s-.19.69.2,1.42A6.51,6.51,0,0,0,158.4,29.65Z"/><path class="cls-1" d="M182.53,12.06a1.52,1.52,0,0,1,.64.7,1.55,1.55,0,0,1-.13,1,26.68,26.68,0,0,0-1.12,3.53,3.1,3.1,0,0,0,.2,2.19.24.24,0,0,1,0,.31,3.52,3.52,0,0,1-.59.58,10.22,10.22,0,0,1-2.83,1.94,28.86,28.86,0,0,1-3.69,1.3c-.59.18-.84.44-.76.77s.63.55,1.65.65a22.58,22.58,0,0,0,3.93,0,15.83,15.83,0,0,0,4-.82A3.68,3.68,0,0,0,185.66,23a1.28,1.28,0,0,0,.26-1.2c-.36-.54.06-.73,1.26-.53.45.1.89.22,1.32.33l1.23.38c.22.07.35.17.38.29a.23.23,0,0,1-.13.28,1.78,1.78,0,0,0-.84,1.48,6.08,6.08,0,0,0,.6,2.78c.18.43,0,.59-.46.5a11.1,11.1,0,0,1-3-1.11,7.27,7.27,0,0,0-2.52-.83,2.2,2.2,0,0,0-1.87.31,6.12,6.12,0,0,0-.68.78,4.79,4.79,0,0,0-.5.9,10.28,10.28,0,0,0-.4,1.19c-.14.46-.29,1-.47,1.63a18.26,18.26,0,0,0-.67,3.61,2.45,2.45,0,0,0,.62,1.78,3.15,3.15,0,0,0,1.43.85,4.27,4.27,0,0,0,1.85.14,3.28,3.28,0,0,1,.83,0,2.48,2.48,0,0,1,1,.32c1.1.51,2.22,1,3.34,1.49l3.22,1.35c1,.42,2,.81,2.87,1.14s1.67.62,2.3.83a8.54,8.54,0,0,1,3.12,2,2.68,2.68,0,0,0,2.32.73,2.57,2.57,0,0,0,2-1.76,8.56,8.56,0,0,1,.47-1.06,12.64,12.64,0,0,1,.74-1.24l.84-1.19a8.44,8.44,0,0,1,.73-.92,2.51,2.51,0,0,0,.85-1.42,2.58,2.58,0,0,0-.69-1.68,5.49,5.49,0,0,0-1.27-1.25,5.29,5.29,0,0,0-1.78-.68,5.69,5.69,0,0,1-.94-.3c-.32-.13-.82-.39-1.54-.78a1,1,0,0,1-.5-.53,5.37,5.37,0,0,1-.13-1.05c0-.67,0-1.31,0-1.92s0-1.13.08-1.56.11-.57.2-.64.22-.06.43.07l1.91,1c.62.33,1.23.68,1.83,1q.53.36.18.6a1,1,0,0,0-.42.73,2.61,2.61,0,0,0,.27,1.44,14.47,14.47,0,0,0,1.23,2.16,25,25,0,0,0,2.42,3c.61.67,1.15,1,1.63.89s.63-.47.45-1.19-.47-1.59-.67-2.39-.37-1.53-.51-2.17c-.07-.38.19-.58.78-.59a1.74,1.74,0,0,0,1.82-1.2,5,5,0,0,1,.73-.93,14.77,14.77,0,0,1,1.32-1.25A3.69,3.69,0,0,0,215.75,26a3.73,3.73,0,0,0-.57-2.33,3.45,3.45,0,0,0-1.62-1.55,5.39,5.39,0,0,0-2.33-.66,5.55,5.55,0,0,1-2.9-1,9,9,0,0,0-1-.61c-.35-.18-.7-.36-1-.55-1-.52-1-.79,0-.82l1,0c.38,0,.84.06,1.42.13a3.23,3.23,0,0,0,1.64-.15,1,1,0,0,0,.7-.78,1.7,1.7,0,0,0-.44-1.2,5.6,5.6,0,0,0-1.8-1.38c-.76-.41-1.56-.81-2.39-1.18s-1.73-.73-2.68-1.08a.88.88,0,0,1-.65-1c.08-.34-.13-.9-.65-1.69-1-1.58-2.57-2-4.52-1.08a8.23,8.23,0,0,1-2.54.56q-1.66.17-3.57.18c-1.27,0-2.52-.05-3.76-.16a19.83,19.83,0,0,1-3.15-.52c-2.31-.59-3.7-.73-4.14-.49s-.29.91.44,2A5,5,0,0,0,182.53,12.06Zm16.2,26.64a1.06,1.06,0,0,1-.8.52,4.43,4.43,0,0,1-1.73-.34c-.89-.3-2.24-.85-4.09-1.59L186,34.82a1.29,1.29,0,0,1-.63-.51,1.14,1.14,0,0,1,0-.89c.1-.29.24-.46.41-.51a2.08,2.08,0,0,1,1,.1,48.1,48.1,0,0,1,6.14,2c1.83.75,3.67,1.61,5.5,2.57a1.35,1.35,0,0,1,.44.45A.6.6,0,0,1,198.73,38.7Zm2.06-3.25a.85.85,0,0,1-.78.27,6.08,6.08,0,0,1-1.66-.62c-.67-.33-1.49-.7-2.45-1.11s-2-.83-3-1.23l-3.07-1.13c-1-.36-1.87-.66-2.57-.89a1.43,1.43,0,0,1-.7-.4.83.83,0,0,1,0-.69c.15-.46.59-.6,1.33-.43a68.93,68.93,0,0,1,6.74,2.13c2.06.77,3.66,1.46,4.83,2C200.93,34,201.36,34.74,200.79,35.45Zm-7.33-11.91c-.09-.29.08-.36.52-.2a17.52,17.52,0,0,1,1.77.64c.56.23,1.12.47,1.67.72s.65.43.32.52c-.53.19-.74.71-.63,1.55a10.82,10.82,0,0,0,1.73,3.68c.21.31.13.38-.25.23-.9-.42-1.84-.82-2.82-1.21s-2-.75-3.16-1.1c-.29-.11-.42-.28-.38-.52a13.66,13.66,0,0,1,.4-1.85,5.66,5.66,0,0,1,.74-1.62A1,1,0,0,0,193.46,23.54Zm14.12,3.1a1,1,0,0,1-1,.37,10.63,10.63,0,0,1-2.35-1.07,28.49,28.49,0,0,1-2.89-1.67c-.35-.28-.45-.53-.3-.77a.86.86,0,0,1,.76-.41,6.56,6.56,0,0,1,2.17.82,32.08,32.08,0,0,1,2.94,1.5C207.71,25.82,207.93,26.23,207.58,26.64ZM203.06,20a2,2,0,0,1,1,.23l1.94.84c.62.28,1.24.58,1.85.89,1.12.6,1.46,1.18,1,1.74-.28.47-.85.44-1.73-.07a7,7,0,0,0-.9-.47l-1.52-.68a8.84,8.84,0,0,1-2.05-1.08.67.67,0,0,1-.19-.83C202.64,20.25,202.83,20.06,203.06,20Zm-11.93-6.8h2.33c.68,0,1.32,0,1.93,0s1.22,0,1.84-.05l2.08-.11a2.92,2.92,0,0,1,1,.1,5.08,5.08,0,0,1,.91.36c1,.54,1.55,1,1.58,1.51s-.36.94-1.17,1.47a1.88,1.88,0,0,1-.85.24,3.14,3.14,0,0,1-1.2-.28c-1.35-.48-2.72-.93-4.13-1.36s-2.92-.85-4.54-1.26c-.47-.12-.7-.25-.68-.41S190.56,13.23,191.13,13.23Zm-1.67,2.55c.14-.46.54-.59,1.19-.38l4.59,1.4a3.59,3.59,0,0,1,1.25.62.42.42,0,0,1,0,.55,1.18,1.18,0,0,1-1.56.47c-.78-.24-1.56-.5-2.33-.76s-1.55-.5-2.33-.72S189.28,16.33,189.46,15.78ZM188.13,19a1.13,1.13,0,0,1,1.35-.49q2.36.6,4.84,1.48c.62.23.86.55.7,1-.23.61-.85.73-1.86.37l-1.9-.66c-.65-.22-1.33-.43-2.06-.63C188.25,19.78,187.89,19.43,188.13,19Z"/><path class="cls-1" d="M235.73,61.11a3.8,3.8,0,0,0,1.32,1,2.43,2.43,0,0,0,1.22.24,1.45,1.45,0,0,1,.77,0,3.77,3.77,0,0,1,1,.69c1.74,1.56,3.37,3.14,4.9,4.72s3.15,3.34,4.83,5.3a2.48,2.48,0,0,1,.57,1,.75.75,0,0,1-.35.75q-1.71,1.23-3.46,2.59A3.36,3.36,0,0,0,245,79.28a2.58,2.58,0,0,0,1,2.15,20.27,20.27,0,0,0,1.9,1.79,3.54,3.54,0,0,0,1.46.76,2.27,2.27,0,0,0,1.37-.17,6.79,6.79,0,0,0,1.62-1.06c.35-.32.71-.61,1.07-.88l1.2-.88a1,1,0,0,1,.87-.25,2.74,2.74,0,0,1,1,1,101.61,101.61,0,0,1,5.83,9.5,25.11,25.11,0,0,1,2.08,4.55,5.56,5.56,0,0,0,1.91,3.61,3.23,3.23,0,0,0,3.32.68,14.3,14.3,0,0,1,4.19-.69,2.18,2.18,0,0,0,1.7-1,4.07,4.07,0,0,0,.37-2.88,8.13,8.13,0,0,0-.81-2.11,10.21,10.21,0,0,0-1.4-2A11.79,11.79,0,0,1,272.44,90a17.15,17.15,0,0,1-1-1.76c-.63-1.15-1.53-2.74-2.76-4.73s-2.87-4.49-5-7.42a2.57,2.57,0,0,1-.57-1.15c0-.22.22-.46.63-.7s.81-.4,1-.34.45.31.78.77c2.25,3.16,3.79,5.6,4.74,7.19a19.37,19.37,0,0,1,1.55,2.94,6.83,6.83,0,0,0,2,3.51,2.21,2.21,0,0,0,2.88.36,5.09,5.09,0,0,1,1.53-.53,9,9,0,0,1,1.77-.18,1.23,1.23,0,0,0,1.2-.66,5.92,5.92,0,0,0,0-2.72,4.67,4.67,0,0,0-.7-2A6.27,6.27,0,0,0,279.16,81a7.05,7.05,0,0,1-1.39-1.25A13.86,13.86,0,0,1,276.55,78c-.59-1-1.23-2-1.91-3.14s-1.66-2.57-2.95-4.38c-.41-.58-.43-1-.07-1.26a10.09,10.09,0,0,0,1.56-1.34,2.05,2.05,0,0,0,.56-1.29,3.65,3.65,0,0,0-.45-1.69,20.63,20.63,0,0,0-1.46-2.44,16.4,16.4,0,0,0-1.54-2,2.35,2.35,0,0,0-1.3-.8,2,2,0,0,0-1.4.36,12.26,12.26,0,0,0-1.89,1.51c-.35.28-.72.18-1.13-.32-1.52-1.85-2.9-3.42-4.11-4.74s-2.41-2.58-3.6-3.77a1.79,1.79,0,0,1-.65-1.34,3,3,0,0,0-.72-1.72,5.62,5.62,0,0,0-1.94-1.51,3.18,3.18,0,0,0-1.56-.4,4,4,0,0,0-2.64,1,3.9,3.9,0,0,0-.86,1,14.67,14.67,0,0,0-.67,1.49L247.16,53a3,3,0,0,0,.72,3,3.28,3.28,0,0,0,1.73,1.3,2.31,2.31,0,0,1,1,.26c.27.16.56.36.89.6,1.47,1.49,2.75,2.84,3.84,4s2.26,2.48,3.48,3.91a1.41,1.41,0,0,1,.42.84c0,.2-.2.46-.57.76s-.72.52-.91.51-.42-.19-.7-.53c-2.13-2.53-4.12-4.71-5.92-6.6s-3.53-3.56-5.15-5a3,3,0,0,1-.53-.66,6.79,6.79,0,0,1-.47-.94,2.9,2.9,0,0,0-1-1.19,9.77,9.77,0,0,0-2-1.17,2.6,2.6,0,0,0-1.07-.16,4.82,4.82,0,0,0-1.28.21,4.09,4.09,0,0,0-1.18.54,2.68,2.68,0,0,0-.82.78c-.48.77-.88,1.42-1.2,2s-.66,1.17-1.05,1.88a3.37,3.37,0,0,0-.44,2A3.25,3.25,0,0,0,235.73,61.11Zm32.34,10.28c.44-.33.79-.45,1-.37a1.6,1.6,0,0,1,.74.65c1.56,2.18,2.7,3.93,3.49,5.2s1.46,2.43,2,3.48a2.58,2.58,0,0,1,.38,1.07c0,.22-.19.42-.57.59-1.08.47-2.32-.54-3.79-2.94-.58-1-1.13-1.82-1.65-2.59s-1.24-1.83-2.19-3.16a1.62,1.62,0,0,1-.41-1C267.18,72.13,267.49,71.81,268.07,71.39ZM256.76,60q-1.55-1.65-3.42-3.54a1.56,1.56,0,0,1-.46-.78c0-.22.17-.54.59-1s.81-.66,1-.63a2.44,2.44,0,0,1,1,.69c1.4,1.37,2.62,2.64,3.68,3.79s2.2,2.41,3.4,3.79a2.29,2.29,0,0,1,.52,1q.06.41-.57.93c-.53.44-.93.62-1.21.55a2.72,2.72,0,0,1-1.11-.94Q258.31,61.68,256.76,60Zm2.52,17.36c.63-.47,1.1-.67,1.42-.59a2.18,2.18,0,0,1,1,.92c2,2.84,3.54,5.32,4.76,7.36s2.29,4,3.24,5.9a2.06,2.06,0,0,1,.28,1.27c-.07.33-.37.59-.9.77a2.17,2.17,0,0,1-1.88-.21,9.21,9.21,0,0,1-1.87-2.72c-.61-1.09-1.43-2.48-2.48-4.14s-2.45-3.74-4.24-6.19a1.94,1.94,0,0,1-.45-1.12C258.2,78.33,258.56,77.92,259.28,77.39ZM242.47,58.76a3.82,3.82,0,0,1,1.29-1c.25,0,.54.1.89.43,2,1.87,3.76,3.63,5.29,5.25s3.11,3.35,4.71,5.21a2.4,2.4,0,0,1,.73,1.41c0,.33-.38.8-1.09,1.38-.56.46-1,.64-1.33.54a4.46,4.46,0,0,1-1.45-1.23c-1.8-2-3.46-3.8-4.95-5.32s-2.92-2.91-4.3-4.17c-.49-.44-.73-.79-.72-1.07S241.85,59.41,242.47,58.76Z"/><path class="cls-1" d="M267.13,208a2.1,2.1,0,0,0-1.2.76,6.72,6.72,0,0,0-1.18,2.1,20.63,20.63,0,0,1-2.31,3.74,49.34,49.34,0,0,1-4.86,5.68,10.54,10.54,0,0,0-1.87,2.31,2.25,2.25,0,0,0-.11,2,.61.61,0,0,0,1,.34,9.2,9.2,0,0,0,1.93-1.55c.93-.92,2-2,3.24-3.3s2.56-2.73,4-4.33a15,15,0,0,0,2.12-2.94,6,6,0,0,0,.58-2.38,3.44,3.44,0,0,0-.37-1.85A.92.92,0,0,0,267.13,208Z"/><path class="cls-1" d="M267.91,196.53a1.4,1.4,0,0,0-1.32-.18,3.6,3.6,0,0,0-1.43,1,5.47,5.47,0,0,0-1.1,1.82c-.11.28-.27.69-.5,1.21s-.49,1.07-.77,1.65-.55,1.11-.82,1.6-.48.84-.62,1c-1,1.5-1.86,2.79-2.63,3.86s-1.51,2-2.19,2.9-1.38,1.68-2.08,2.47-1.48,1.61-2.35,2.47a1.71,1.71,0,0,1-1.54.65,1.36,1.36,0,0,1-1-.91c-.52-1-.51-2.54,0-4.65a28.8,28.8,0,0,1,2.94-7.15c.37-.69.47-1.2.29-1.51s-.76-.36-1.77-.19a4.56,4.56,0,0,0-2.24,1.46,15.76,15.76,0,0,0-2.42,3.78,19.12,19.12,0,0,0-2.3,7.48,12.69,12.69,0,0,0,1.28,6.26,6.84,6.84,0,0,0,1.51,2.23,2.38,2.38,0,0,0,1.92.39c1.68-.26,2.66-1,2.91-2.07a5.26,5.26,0,0,1,.61-1.12,6.62,6.62,0,0,1,1.09-1.35c1.36-1.37,2.55-2.65,3.59-3.8s2-2.3,2.9-3.4,1.76-2.24,2.6-3.4,1.74-2.47,2.69-3.93a12.88,12.88,0,0,1,1.88-2.25,4.36,4.36,0,0,0,1.22-1.95,6,6,0,0,0,.41-2.66A2.33,2.33,0,0,0,267.91,196.53Z"/><path class="cls-1" d="M281.07,185.36c-.27-.19-1,0-2.24.41a5.82,5.82,0,0,0-1.83,1.16,10,10,0,0,0-1.78,2.28,24,24,0,0,0-1.69,3.63,50.38,50.38,0,0,0-1.59,5.2c-.26.93-.48,1.82-.66,2.68s-.38,1.87-.58,3-.42,2.59-.66,4.26-.55,3.79-1,6.36c-.17,1.18-.36,2.24-.56,3.15s-.39,1.75-.56,2.5a5.15,5.15,0,0,1-.5,1.38,1.94,1.94,0,0,1-1,.72c-3.36,1.54-7,3.17-11,4.8s-8,3.21-12.29,4.71a17.56,17.56,0,0,0-3.75,1.62,6.55,6.55,0,0,0-2,2.14,16.56,16.56,0,0,0-1.69,3.74,7,7,0,0,0-.05,3.32c.17.56.67.63,1.49.19,6.17-3.19,11.69-6.28,16.66-9s9-5.17,12.24-7c.25-.13.4-.18.45-.13a.45.45,0,0,1,.09.29,1.35,1.35,0,0,0,.28,1,1.58,1.58,0,0,0,.85.55,3,3,0,0,0,1.13.09,2.44,2.44,0,0,0,1.09-.4,11.33,11.33,0,0,0,3.12-2.89,3.21,3.21,0,0,0,.18-2.67,12.73,12.73,0,0,1-.29-3.58,41.54,41.54,0,0,1,.45-4.88c.27-1.77.6-3.61,1-5.5s.85-3.71,1.36-5.46c.37-1.22.81-2.6,1.29-4.14s1-3.09,1.49-4.64,1-3,1.42-4.39.82-2.46,1.15-3.26S281.33,185.55,281.07,185.36Z"/><path class="cls-1" d="M199.8,268.5a5.64,5.64,0,0,0-3.29.15,15.86,15.86,0,0,0-3.82,2c-.3.2-.9.59-1.84,1.16s-1.76,1-2.47,1.41c-1,.53-1.88,1-2.54,1.41a4.06,4.06,0,0,1-1,.4,10.5,10.5,0,0,1-4,.56c-.51-.15-.58-.51-.2-1.08a2.09,2.09,0,0,1,.54-.62c.25-.21.63-.5,1.15-.87a3.65,3.65,0,0,1,1.29-.57,35.74,35.74,0,0,0,3.67-1.09c1.17-.42,2.26-.83,3.26-1.22a2,2,0,0,1,.5-.1h.53a4.26,4.26,0,0,0,1.45-.14,7,7,0,0,0,1.46-.59,3.65,3.65,0,0,0,2-2.28,2.26,2.26,0,0,0-.8-2.12,7.59,7.59,0,0,1-.7-.72,7.86,7.86,0,0,1-.5-.7,6.2,6.2,0,0,1-.46-.93c-.15-.37-.31-.81-.48-1.33a4.39,4.39,0,0,0-1.39-2.31,1.83,1.83,0,0,0-1.83,0,5.6,5.6,0,0,0-1.62,1.2,1.4,1.4,0,0,1-.76.54c-.59.28-1.17.53-1.74.77s-1.19.45-1.84.65c-.27.07-.43,0-.48-.19a12.6,12.6,0,0,1,1.39-4.1,16.77,16.77,0,0,1,2.59-3.14,32.49,32.49,0,0,1,3.79-3.11,53.06,53.06,0,0,1,4.66-2.91,41.19,41.19,0,0,1,5.2-2.45c.65-.24,1-.61,1-1.08a1.89,1.89,0,0,0-.62-1.39,2.88,2.88,0,0,0-2.14-.84,9,9,0,0,0-3,.58,20.15,20.15,0,0,0-3.47,1.67,35.57,35.57,0,0,0-3.56,2.43,44.09,44.09,0,0,0-4.26,3.63,27.25,27.25,0,0,0-3.14,3.65,21.7,21.7,0,0,0-2.22,3.92,31.08,31.08,0,0,0-1.53,4.52.63.63,0,0,1-.46.42c-.26.09-.46.15-.59.18s-.37,0-.44-.06a.26.26,0,0,1,0-.26,23,23,0,0,0,.66-3.85,8.78,8.78,0,0,0-.13-2.65,4.12,4.12,0,0,0-.75-1.7,2.78,2.78,0,0,0-1.22-.89,19.38,19.38,0,0,0-1.88-.69c-.76-.25-1.58-.49-2.46-.73s-1.76-.45-2.64-.65a23.1,23.1,0,0,0-2.46-.45c-1.15-.14-2.17-.24-3.07-.3a12.46,12.46,0,0,0-2.54.07,8.85,8.85,0,0,0-2.35.64,16,16,0,0,0-2.47,1.36c-.87.58-1.58,1.08-2.12,1.5a6.29,6.29,0,0,0-1.27,1.25,3.49,3.49,0,0,0-.61,1.31,5.87,5.87,0,0,0-.12,1.62c0,.45.09.7.22.76s.42,0,.84-.19a12.51,12.51,0,0,1,1.83-.53c.87-.21,1.84-.41,2.9-.62l3.19-.6a23.84,23.84,0,0,1,2.62-.37,29.52,29.52,0,0,1,7.45.09c1.63.34,2.52,1.05,2.65,2.18a9.27,9.27,0,0,1,0,2.07,6.62,6.62,0,0,1-1,2.31.75.75,0,0,1-.3.26,1.42,1.42,0,0,1-.4.12c-.5,0-.94,0-1.32,0s-.79-.07-1.26-.14a3.22,3.22,0,0,0-1.77.16,5.05,5.05,0,0,0-1.46.87,4.38,4.38,0,0,0-1,1.29,4.15,4.15,0,0,0-.4,1.48c0,.58-.07,1.16-.14,1.72a5.15,5.15,0,0,1-.28,1.22,4.87,4.87,0,0,0-.4,2.09c0,.67.52,1.24,1.51,1.71a3.84,3.84,0,0,0,1.94.3,5.23,5.23,0,0,0,1.92-.44,3.06,3.06,0,0,1,.84-.31,12.13,12.13,0,0,1,1.67-.13,38.51,38.51,0,0,0,4.36-.44c.15,0,.23,0,.27,0s0,.1-.08.15a12.47,12.47,0,0,1-1.4.91,8.21,8.21,0,0,1-1.3.62c-1.07.43-1.7.84-1.88,1.27a1.07,1.07,0,0,0,.19,1.19,8,8,0,0,0,.76.69,1.58,1.58,0,0,0,1.34.32c.28,0,.66-.13,1.14-.25a9.3,9.3,0,0,1,2.43-.29,12.81,12.81,0,0,1,3.08.54.92.92,0,0,1,.32.22,3,3,0,0,1,.25.29c.25.43.76.62,1.53.56a5.19,5.19,0,0,0,2.18-.45,8.59,8.59,0,0,0,2.18-1.64,29.62,29.62,0,0,1,5.5-4.18,45.69,45.69,0,0,1,7.2-3.25,1.55,1.55,0,0,0,1.11-1.32A1.05,1.05,0,0,0,199.8,268.5ZM184.24,265c.94-.24,1.74-.44,2.4-.59a13.88,13.88,0,0,1,1.77-.28,1,1,0,0,1,.89.28,3.84,3.84,0,0,1,.8,1.19,3.55,3.55,0,0,1,.29,1.22.74.74,0,0,1-.55.65c-.81.3-1.59.56-2.34.79s-1.67.47-2.73.74c-.33.08-.52,0-.57-.17a14,14,0,0,0-.21-1.7,12.08,12.08,0,0,1-.19-1.59C183.77,265.29,183.92,265.11,184.24,265Zm-6.17,5.54c-.79.17-1.71.34-2.77.53l-3.21.54c-.84.14-1.39.1-1.64-.12s-.25-.75,0-1.59a2.77,2.77,0,0,1,.75-1.5,4.36,4.36,0,0,1,1.79-.7l2.56-.55c.88-.19,1.64-.37,2.27-.54.27-.06.43,0,.49.26,0,.46,0,1,.09,1.58s.11,1.13.16,1.57C178.61,270.32,178.45,270.5,178.07,270.57Z"/><path class="cls-1" d="M217.11,258.82a8.28,8.28,0,0,1-1.7-1.91,24.63,24.63,0,0,1-1.67-2.76c-.52-1-1-2-1.41-2.89a15.47,15.47,0,0,1-.87-2.33,9.61,9.61,0,0,0-1.13-2.68,4,4,0,0,0-1.36-1.37,2.08,2.08,0,0,0-1.31-.3,1.9,1.9,0,0,0-1,.54,7.19,7.19,0,0,0-1.34,1.59.71.71,0,0,1-.16.3,2.56,2.56,0,0,0-.23.27,10.4,10.4,0,0,1-3,1.8,8.07,8.07,0,0,1-2.7.53,4.44,4.44,0,0,0-1.82.28,3.36,3.36,0,0,0-1.08.57,7.87,7.87,0,0,0-.61.86,2.13,2.13,0,0,0-.28,1,3.83,3.83,0,0,0,.16,1.28,15.65,15.65,0,0,0,.68,1.86c.38.88.75,1.86,1.12,2.93s.71,2.1,1,3.11.54,1.92.74,2.74a16.89,16.89,0,0,1,.37,1.86,4,4,0,0,0,.74,2.33,4.19,4.19,0,0,0,1.6,1,2.88,2.88,0,0,0,1.82.17,7.52,7.52,0,0,0,2.18-1.2,4.58,4.58,0,0,1,.75-.52,11.92,11.92,0,0,1,1.2-.51c.54-.21,1.31-.47,2.3-.8s2.35-.8,4-1.43a4.54,4.54,0,0,1,1.18-.32,4.43,4.43,0,0,0,2.4-1.44,3,3,0,0,0,.74-2.44A3.27,3.27,0,0,0,217.11,258.82Zm-14.41-1.48a.42.42,0,0,1-.41,0,.52.52,0,0,1-.22-.25c-.22-.54-.4-1-.56-1.46a10.15,10.15,0,0,1-.32-1.07,1.68,1.68,0,0,1,.75-1.91,9.13,9.13,0,0,1,1.73-1.15,8.59,8.59,0,0,1,2.43-.76.65.65,0,0,1,.77.38c.29.52.57,1,.84,1.57s.56,1.08.86,1.62a.36.36,0,0,1,0,.41,1,1,0,0,1-.34.27,23,23,0,0,1-2.78,1.36C204.49,256.73,203.58,257.06,202.7,257.34Zm9.3,5.24a2.63,2.63,0,0,1-.34.33L209.34,264c-.67.3-1.29.55-1.84.75a3.15,3.15,0,0,1-1.39.21,1.48,1.48,0,0,1-1-.7,6.83,6.83,0,0,1-.51-1c-.24-.52-.5-1.12-.78-1.82-.12-.29,0-.5.35-.65,1.12-.52,2.1-1,2.95-1.34s1.77-.73,2.75-1.1a.54.54,0,0,1,.48,0,.76.76,0,0,1,.19.25c.29.62.56,1.24.82,1.86s.49,1.2.69,1.75A.31.31,0,0,1,212,262.58Z"/><path class="cls-1" d="M129.17,253.81a10.88,10.88,0,0,0-2.28-1.56,13.38,13.38,0,0,0-2.83-1.13,11.65,11.65,0,0,0-3.22-.43,9.26,9.26,0,0,0-2.34.33,3.65,3.65,0,0,0-1.6.92,4.71,4.71,0,0,0-1.06,1.72,19.88,19.88,0,0,0-.77,2.67c-.34,1.54-.64,2.85-.88,3.94s-.51,2.14-.79,3.17a1.07,1.07,0,0,1-.42.64,4.63,4.63,0,0,1-1.19.52c-.39.09-.75.18-1.06.28a10,10,0,0,0-.94.36,6.6,6.6,0,0,0-1.24.62,1.07,1.07,0,0,0-.43.55c-.1.4.61.66,2.14.74a3.07,3.07,0,0,1,1.78.41c.23.22.26.76.07,1.59-.15.67-.44,1.06-.89,1.17a5.23,5.23,0,0,1-2.33-.28,3.3,3.3,0,0,0-1.84-.18,2,2,0,0,0-.89,1q-.28.51,0,.81a4.78,4.78,0,0,0,1.49.83,5.37,5.37,0,0,0,.92.35c.36.1.72.21,1.09.34.84.26,1.16.71,1,1.37a8.75,8.75,0,0,0-.33,1c-.11.37-.23.74-.37,1.1a4.94,4.94,0,0,0-.37,2.81,2.86,2.86,0,0,0,1.71,1.63,5.55,5.55,0,0,0,3.92.49,1.93,1.93,0,0,0,1.43-2.12,10.05,10.05,0,0,1-.07-1.47,18.75,18.75,0,0,1,.16-2.27.8.8,0,0,1,.54-.69,6.08,6.08,0,0,1,1.89,0,19.11,19.11,0,0,1,2.31.34,2.23,2.23,0,0,1,.89.42,2.17,2.17,0,0,0,1.75.46,8.74,8.74,0,0,0,3.12-1.16,2.11,2.11,0,0,0,1.07-1,1.34,1.34,0,0,0,0-1.06,1.78,1.78,0,0,0-.88-.8,2.65,2.65,0,0,0-1.51-.21c-1.21.12-2.33.19-3.35.23a32.44,32.44,0,0,1-3.68-.1,1.08,1.08,0,0,1-1-.52,2.86,2.86,0,0,1,0-1.75,9.28,9.28,0,0,1,.31-1.28,1.54,1.54,0,0,1,.45-.72,1.58,1.58,0,0,1,.77-.36,6.71,6.71,0,0,1,1.26-.12c1,0,2.06-.09,3.07-.15s2-.14,3-.26c1.83-.22,3-.69,3.54-1.37a1.37,1.37,0,0,0-.26-2,5.29,5.29,0,0,0-2.12-1.41,5.38,5.38,0,0,0-2.51.16c-.92.22-1.73.37-2.4.48s-1.36.18-2.06.23a3,3,0,0,1-1.29,0q-.32-.13-.27-.39.34-1.14.69-2.64c.24-1,.48-2,.74-2.9a1.6,1.6,0,0,1,.94-.9,5.23,5.23,0,0,1,2-.4,12,12,0,0,1,2.68.22,15.17,15.17,0,0,1,3.1.91c.69.29,1.17.33,1.43.11s.19-.68-.19-1.41A6.77,6.77,0,0,0,129.17,253.81Z"/><path class="cls-1" d="M105,271.41a1.65,1.65,0,0,1-.64-.71,1.62,1.62,0,0,1,.13-1,26.68,26.68,0,0,0,1.12-3.53,3.07,3.07,0,0,0-.19-2.18.26.26,0,0,1,0-.32,4.87,4.87,0,0,1,.6-.58,10.4,10.4,0,0,1,2.82-1.94,31.12,31.12,0,0,1,3.69-1.3c.6-.18.85-.44.77-.77s-.63-.55-1.66-.65a23.5,23.5,0,0,0-3.92,0,15.91,15.91,0,0,0-4,.82,3.65,3.65,0,0,0-1.83,1.22,1.28,1.28,0,0,0-.27,1.21c.36.54,0,.72-1.26.53-.45-.11-.89-.22-1.31-.34s-.84-.24-1.24-.38c-.22-.07-.34-.17-.38-.29a.24.24,0,0,1,.14-.28,1.76,1.76,0,0,0,.83-1.48,6.21,6.21,0,0,0-.59-2.78c-.19-.43,0-.59.46-.49a10.7,10.7,0,0,1,3,1.1,7.27,7.27,0,0,0,2.52.83,2.22,2.22,0,0,0,1.88-.31,6.71,6.71,0,0,0,.67-.77,4.86,4.86,0,0,0,.5-.9,11.07,11.07,0,0,0,.41-1.2l.46-1.63a18.32,18.32,0,0,0,.67-3.6,2.34,2.34,0,0,0-.62-1.78,3.16,3.16,0,0,0-1.43-.86,4.36,4.36,0,0,0-1.84-.14,3.4,3.4,0,0,1-.84.06,2.71,2.71,0,0,1-1-.32c-1.1-.52-2.21-1-3.34-1.49s-2.2-.94-3.22-1.36-2-.8-2.87-1.14-1.66-.62-2.3-.82a8.56,8.56,0,0,1-3.11-2.05,2.68,2.68,0,0,0-2.33-.74,2.63,2.63,0,0,0-2,1.76,6.83,6.83,0,0,1-.47,1.06,10.66,10.66,0,0,1-.74,1.24l-.83,1.19a8.61,8.61,0,0,1-.74.93,1.93,1.93,0,0,0-.16,3.09,5.77,5.77,0,0,0,1.27,1.26,5.51,5.51,0,0,0,1.78.68,6.37,6.37,0,0,1,.94.29,15.39,15.39,0,0,1,1.54.79,1,1,0,0,1,.5.53,4.48,4.48,0,0,1,.13,1c0,.67,0,1.32,0,1.92s0,1.13-.07,1.57a1.29,1.29,0,0,1-.2.64c-.09.07-.23,0-.43-.07l-1.91-1c-.62-.33-1.23-.67-1.84-1-.35-.23-.41-.43-.18-.59a1.06,1.06,0,0,0,.43-.74,2.65,2.65,0,0,0-.28-1.44A13.63,13.63,0,0,0,81,250,24.83,24.83,0,0,0,78.63,247c-.62-.67-1.16-1-1.63-.9s-.63.47-.46,1.19.47,1.59.67,2.39.37,1.53.51,2.18c.07.38-.19.58-.77.58a1.75,1.75,0,0,0-1.82,1.21,5.36,5.36,0,0,1-.74.92,16,16,0,0,1-1.31,1.25,3.57,3.57,0,0,0-1.26,1.67,3.64,3.64,0,0,0,.56,2.33A3.52,3.52,0,0,0,74,261.39a5.36,5.36,0,0,0,2.32.65,5.64,5.64,0,0,1,2.91,1,8.78,8.78,0,0,0,1,.6l1,.55c1,.52,1,.8,0,.83l-1,0c-.37,0-.84-.06-1.41-.13a3.2,3.2,0,0,0-1.64.15,1,1,0,0,0-.71.78A1.72,1.72,0,0,0,77,267a5.3,5.3,0,0,0,1.79,1.37c.76.42,1.56.81,2.4,1.18s1.72.74,2.68,1.09a.88.88,0,0,1,.65,1c-.08.34.13.9.64,1.69,1,1.58,2.58,1.95,4.52,1.08a8.73,8.73,0,0,1,2.54-.55c1.11-.12,2.3-.17,3.57-.18a35.9,35.9,0,0,1,3.76.16,17.91,17.91,0,0,1,3.16.52c2.31.59,3.69.73,4.14.48s.29-.91-.44-2A5,5,0,0,0,105,271.41Zm-16.2-26.65a1.08,1.08,0,0,1,.8-.51,4.16,4.16,0,0,1,1.73.33c.89.31,2.25.85,4.09,1.59l6.12,2.48a1.32,1.32,0,0,1,.64.51,1.12,1.12,0,0,1,0,.88c-.1.29-.23.47-.41.52a2.25,2.25,0,0,1-1-.1,45.9,45.9,0,0,1-6.13-2c-1.83-.75-3.67-1.6-5.51-2.57a1.32,1.32,0,0,1-.44-.44A.66.66,0,0,1,88.83,244.76Zm-2,3.25a.87.87,0,0,1,.77-.27,6,6,0,0,1,1.67.62c.67.33,1.48.7,2.45,1.12s2,.82,3,1.22,2.06.78,3.07,1.14l2.56.89a1.31,1.31,0,0,1,.7.39.88.88,0,0,1,0,.7c-.16.45-.6.6-1.33.42a70,70,0,0,1-6.75-2.13c-2-.77-3.66-1.45-4.83-2C86.63,249.44,86.2,248.73,86.78,248Zm7.32,11.92c.1.28-.08.35-.51.19-.63-.19-1.22-.4-1.78-.63s-1.11-.47-1.66-.73-.66-.42-.32-.51c.53-.2.73-.72.62-1.55A10.78,10.78,0,0,0,88.73,253c-.21-.31-.13-.39.24-.23.9.41,1.84.82,2.83,1.21s2,.75,3.15,1.09c.3.11.43.28.38.52a16,16,0,0,1-.39,1.86,5.82,5.82,0,0,1-.75,1.62A1,1,0,0,0,94.1,259.93ZM80,256.83a1,1,0,0,1,1-.38,10.93,10.93,0,0,1,2.35,1.07,29.67,29.67,0,0,1,2.9,1.68c.34.27.44.53.29.76a.81.81,0,0,1-.75.41,6.34,6.34,0,0,1-2.18-.82,32.22,32.22,0,0,1-2.93-1.49Q79.46,257.43,80,256.83Zm4.53,6.61a2.11,2.11,0,0,1-1-.23l-2-.85c-.62-.28-1.24-.57-1.84-.89-1.13-.59-1.47-1.18-1-1.73.28-.48.86-.45,1.73.07a7.23,7.23,0,0,0,.9.46l1.52.68A9.73,9.73,0,0,1,84.87,262a.68.68,0,0,1,.2.83C84.92,263.21,84.73,263.4,84.51,263.44Zm11.92,6.79c-.87,0-1.65,0-2.33,0H92.18l-1.84.06-2.09.11a3.14,3.14,0,0,1-1-.11,4.52,4.52,0,0,1-.92-.35c-1-.55-1.55-1.06-1.57-1.51s.36-.94,1.16-1.47a2,2,0,0,1,.86-.25A3.44,3.44,0,0,1,88,267c1.34.48,2.72.94,4.13,1.36s2.92.86,4.53,1.27c.48.11.71.25.68.4S97,270.24,96.43,270.23Zm1.68-2.54c-.15.46-.55.58-1.19.37l-4.6-1.39a3.9,3.9,0,0,1-1.25-.62.44.44,0,0,1,0-.56,1.19,1.19,0,0,1,1.56-.47c.78.24,1.56.5,2.33.76s1.55.51,2.34.73S98.28,267.13,98.11,267.69Zm1.32-3.19a1.1,1.1,0,0,1-1.35.48c-1.57-.39-3.18-.89-4.84-1.48-.62-.22-.85-.55-.7-1,.23-.61.85-.72,1.87-.36.62.22,1.25.44,1.9.65s1.33.43,2,.63C99.32,263.69,99.68,264,99.43,264.5Z"/><path class="cls-1" d="M51.83,222.35a3.68,3.68,0,0,0-1.32-1,2.43,2.43,0,0,0-1.22-.24,1.54,1.54,0,0,1-.77,0,3.65,3.65,0,0,1-1-.68q-2.61-2.35-4.9-4.72c-1.53-1.59-3.14-3.35-4.82-5.31a2.64,2.64,0,0,1-.58-1,.75.75,0,0,1,.35-.75c1.14-.82,2.3-1.69,3.46-2.59a3.42,3.42,0,0,0,1.55-1.89,2.55,2.55,0,0,0-1-2.15,19.3,19.3,0,0,0-1.9-1.8,3.61,3.61,0,0,0-1.46-.76,2.36,2.36,0,0,0-1.37.17,7.08,7.08,0,0,0-1.61,1.06,11.92,11.92,0,0,1-1.08.88l-1.2.89a1,1,0,0,1-.87.24c-.25-.08-.58-.41-1-1a102.47,102.47,0,0,1-5.83-9.5,26.33,26.33,0,0,1-2.08-4.54,5.52,5.52,0,0,0-1.91-3.62,3.21,3.21,0,0,0-3.31-.68,14,14,0,0,1-4.19.69,2.21,2.21,0,0,0-1.71,1,4,4,0,0,0-.36,2.87,7.47,7.47,0,0,0,.81,2.11A10.28,10.28,0,0,0,14,192.13a10.81,10.81,0,0,1,1.14,1.36,17.47,17.47,0,0,1,1,1.77c.63,1.15,1.54,2.74,2.77,4.73s2.86,4.49,5,7.41a2.36,2.36,0,0,1,.57,1.15c0,.23-.21.46-.63.7a1.55,1.55,0,0,1-1,.35c-.18,0-.45-.31-.78-.78-2.25-3.16-3.79-5.6-4.73-7.18a18.3,18.3,0,0,1-1.55-2.95,7,7,0,0,0-2-3.51,2.2,2.2,0,0,0-2.88-.35,5.09,5.09,0,0,1-1.53.52,10,10,0,0,1-1.78.19,1.2,1.2,0,0,0-1.19.65,5.7,5.7,0,0,0,0,2.73,4.75,4.75,0,0,0,.69,2,5.92,5.92,0,0,0,1.29,1.53,7.38,7.38,0,0,1,1.39,1.25A12.49,12.49,0,0,1,11,205.51c.59,1,1.22,2,1.91,3.13s1.65,2.57,2.94,4.38c.41.58.44,1,.08,1.26a10.22,10.22,0,0,0-1.57,1.35,2.07,2.07,0,0,0-.55,1.28,3.66,3.66,0,0,0,.44,1.7,20.91,20.91,0,0,0,1.47,2.44,15.06,15.06,0,0,0,1.54,2,2.34,2.34,0,0,0,1.3.81,2,2,0,0,0,1.4-.36A12.92,12.92,0,0,0,21.86,222c.35-.28.72-.18,1.13.31,1.53,1.85,2.91,3.42,4.12,4.75s2.41,2.58,3.59,3.76a1.82,1.82,0,0,1,.65,1.35,3.06,3.06,0,0,0,.73,1.72A5.7,5.7,0,0,0,34,235.39a3.18,3.18,0,0,0,1.56.4,4,4,0,0,0,1.43-.28,4,4,0,0,0,1.22-.73,3.85,3.85,0,0,0,.85-1,11.42,11.42,0,0,0,.67-1.49c.19-.49.4-1.08.66-1.79a3,3,0,0,0-.72-3A3.28,3.28,0,0,0,38,226.17a2.18,2.18,0,0,1-1-.26c-.26-.16-.56-.35-.89-.59-1.47-1.49-2.75-2.85-3.84-4s-2.25-2.48-3.48-3.9a1.44,1.44,0,0,1-.42-.84c0-.21.2-.46.57-.77a1.75,1.75,0,0,1,.91-.51c.19,0,.42.19.71.54,2.12,2.52,4.11,4.7,5.91,6.59s3.53,3.56,5.15,5a3.57,3.57,0,0,1,.53.66,6,6,0,0,1,.47,1,3.11,3.11,0,0,0,1,1.19,9.83,9.83,0,0,0,2,1.16,2.61,2.61,0,0,0,1.07.17,5.11,5.11,0,0,0,1.28-.21,4.7,4.7,0,0,0,1.18-.54A2.59,2.59,0,0,0,50,230c.48-.77.88-1.42,1.2-2s.67-1.17,1.05-1.89a3.35,3.35,0,0,0,.44-2.05A3.25,3.25,0,0,0,51.83,222.35ZM19.49,212.08c-.44.32-.78.45-1,.36a1.59,1.59,0,0,1-.75-.64c-1.55-2.18-2.7-3.94-3.49-5.2s-1.46-2.43-2-3.49a2.65,2.65,0,0,1-.39-1.06c0-.23.2-.42.58-.59,1.08-.48,2.31.53,3.78,2.94.58,1,1.14,1.82,1.65,2.59s1.25,1.82,2.19,3.15a1.56,1.56,0,0,1,.41,1C20.38,211.33,20.07,211.65,19.49,212.08Zm11.32,11.35c1,1.1,2.17,2.29,3.41,3.55a1.43,1.43,0,0,1,.46.77c0,.23-.17.54-.59.95s-.8.67-1,.63a2.41,2.41,0,0,1-1-.68c-1.4-1.38-2.63-2.65-3.69-3.79s-2.2-2.41-3.4-3.8a2.21,2.21,0,0,1-.52-.95q-.06-.41.57-.93c.53-.44.94-.62,1.21-.55a2.58,2.58,0,0,1,1.11.94C28.62,221.05,29.78,222.33,30.81,223.43Zm-2.52-17.35c-.64.47-1.11.66-1.42.58a2.16,2.16,0,0,1-1-.91c-2-2.85-3.54-5.33-4.75-7.36s-2.3-4-3.25-5.9a2.05,2.05,0,0,1-.27-1.27c.07-.34.37-.59.89-.77a2.13,2.13,0,0,1,1.89.21,9,9,0,0,1,1.86,2.71c.61,1.1,1.43,2.49,2.49,4.14s2.45,3.74,4.23,6.19a2,2,0,0,1,.45,1.12C29.37,205.13,29,205.55,28.29,206.08Zm16.8,18.62a3.51,3.51,0,0,1-1.29,1c-.25,0-.54-.09-.88-.43-2-1.86-3.76-3.62-5.3-5.24s-3.11-3.36-4.71-5.22a2.43,2.43,0,0,1-.73-1.41c0-.33.38-.79,1.1-1.38.55-.46,1-.63,1.32-.53a4.26,4.26,0,0,1,1.45,1.22c1.81,2.05,3.47,3.81,5,5.33s2.93,2.9,4.3,4.17c.5.43.74.79.73,1.07S45.71,224.06,45.09,224.7Z"/><path class="cls-1" d="M237,135a96.51,96.51,0,1,0-96.51,96.52A96.63,96.63,0,0,0,237,135Zm-96.51,93a93,93,0,1,1,93-93A93.06,93.06,0,0,1,140.49,227.92Z"/><path class="cls-1" d="M209.52,130.58H206c0,24.27-29.37,44-65.47,44S75,154.85,75,130.58H71.46c0,26.23,31,47.57,69,47.57a95.92,95.92,0,0,0,26.88-3.76c3.36,7.21,7.63,13.47,12.12,17.72,3.85,3.65,7.59,5.54,10.84,5.54a7.38,7.38,0,0,0,3.07-.64c3.84-1.7,5.86-6.53,5.7-13.61-.15-6.54-2.13-14.4-5.57-22.14l-.79.35C203.18,153.28,209.52,142.43,209.52,130.58Zm-14,52.91c.12,5.46-1.18,9.21-3.59,10.28s-6.06-.48-10-4.24a55.41,55.41,0,0,1-11.14-16.22,73.67,73.67,0,0,0,19.74-10C193.63,170.42,195.41,177.57,195.55,183.49Z"/><path class="cls-1" d="M113.15,124.77c6.79,0,12.31-7.42,12.31-16.55s-5.52-16.56-12.31-16.56-12.3,7.43-12.3,16.56S106.37,124.77,113.15,124.77Zm0-29.55c4.83,0,8.75,5.83,8.75,13s-3.92,13-8.75,13-8.74-5.83-8.74-13S108.33,95.22,113.15,95.22Z"/><path class="cls-1" d="M169.08,124.77c6.78,0,12.3-7.42,12.3-16.55s-5.52-16.56-12.3-16.56-12.3,7.43-12.3,16.56S162.3,124.77,169.08,124.77Zm0-29.55c4.83,0,8.75,5.83,8.75,13s-3.92,13-8.75,13-8.75-5.83-8.75-13S164.26,95.22,169.08,95.22Z"/></svg>