<svg id="圖層_1" data-name="圖層 1" xmlns="http://www.w3.org/2000/svg" viewBox="0 0 283.46 283.46"><defs><style>.cls-1{fill:#fff;}</style></defs><path class="cls-1" d="M278,271.24c-2.07-3.26-4.2-6.48-6.27-9.74q-5.16-8.13-10.27-16.27c-2.39-3.8-4.81-7.59-7.14-11.43-3.26-5.39-6.42-10.83-9.65-16.23-3.38-5.63-6.83-11.21-10.17-16.86-2.27-3.86-4.37-7.82-6.62-11.7-2.66-4.59-5.41-9.12-8.09-13.71-1-1.74-1.88-3.57-2.88-5.32-1.71-3-3.46-6-5.22-9a6,6,0,0,1,.75-.55c2.74-1.32,5.47-2.65,8.22-3.95,3.65-1.73,7.3-3.42,10.95-5.14,2.26-1.06,4.53-2.1,6.75-3.25,1.43-.75,2.68-2.07,4.17-2.42a29.34,29.34,0,0,0,6.93-2.89c1.52-.79,3.1-1.48,4.61-2.32.61-.33,1.6-1,1.53-1.37a3.14,3.14,0,0,0-1.42-1.93c-3.35-1.65-6.79-3.12-10.18-4.7-1.67-.78-3.27-1.73-4.94-2.5-3.71-1.72-7.45-3.34-11.15-5.06-1.38-.64-2.67-1.48-4-2.16-2.75-1.35-5.53-2.66-8.3-4a19,19,0,0,1-2.84-1.45,1.67,1.67,0,0,1-.49-1.48,37.14,37.14,0,0,1,2.22-4.63c2.23-3.87,4.59-7.68,6.81-11.56,1-1.73,1.67-3.64,2.68-5.35a51.34,51.34,0,0,1,4.31-6.48c2-2.43,2.72-5.49,4.75-8s3.45-5.93,5.1-8.95,3.11-5.83,4.67-8.74a3.35,3.35,0,0,1,.43-.5,32.55,32.55,0,0,0,2.22-2.92c1.19-2,2.2-4,3.39-6,2.68-4.43,5.43-8.82,8.14-13.23,1.44-2.32,2.88-4.65,4.3-7a51.89,51.89,0,0,0,3.14-5.32c.95-2.1,3.22-3.41,3.46-5.91,0-.16.32-.29.47-.46a12.35,12.35,0,0,0,1.87-2.11c.7-1.24,1-2.72,1.8-3.91,1.89-2.88,3.93-5.66,6-8.46.65-.9,1-1.71.15-2.69s-1.8-.25-2.53.21C273.68,5,272,6.4,270.11,7.53c-7.46,4.57-15,9-22.42,13.64-3.32,2-6.48,4.31-9.8,6.34s-6.75,3.84-10.11,5.77q-3.92,2.25-7.81,4.57c-2.2,1.33-4.34,2.77-6.56,4.08C209.89,44,206.33,46,202.78,48c-.92.53-1.87,1-2.78,1.53-1.11.65-2.19,1.33-3.28,2-.32.2-.62.44-.95.62-2.47,1.28-5,2.46-7.4,3.84S184,59,181.64,60.23c-2.14,1.19-4.45,2.08-6.65,3.17-.61.3-1,.95-1.65,1.27-1.33.69-2.75,1.21-4.08,1.9-1.81,1-3.56,2-5.43,3.06-.46-1-.75-1.76-1.1-2.45-2.17-4.27-4.42-8.5-6.5-12.82-2.71-5.64-5.23-11.38-7.94-17-1.49-3.12-3.1-6.2-4.85-9.19A4.69,4.69,0,0,0,141,26.57c-.3-.11-1.1.58-1.35,1.07C138.29,30.4,137,33.2,135.72,36c-1.77,3.82-3.44,7.68-5.29,11.45-1.71,3.5-3.66,6.88-5.38,10.37-1.87,3.81-3.59,7.7-5.46,11.75-3.58-2-7-3.9-10.41-5.76-3.94-2.14-7.93-4.17-11.85-6.33s-7.82-4.42-11.7-6.67c-3.44-2-6.86-4-10.29-6.05-2.07-1.22-4.1-2.51-6.21-3.67-3-1.65-6.07-3.08-9-4.82-4-2.37-7.79-5-11.73-7.41-5.32-3.29-10.7-6.48-16.06-9.72C28.67,16.9,25,14.69,21.3,12.39S14,7.61,10.31,5.26A31,31,0,0,0,6.18,3a1.9,1.9,0,0,0-1.74.32A1.93,1.93,0,0,0,4.53,5.1c1.87,3.11,3.85,6.15,5.77,9.24.8,1.28,1.48,2.64,2.3,3.9,1.52,2.34,3.18,4.59,4.66,7,2.54,4.07,4.94,8.21,7.46,12.28,1.19,1.92,2.56,3.73,3.75,5.65,2.54,4.11,5,8.28,7.54,12.39,1.67,2.69,3.53,5.27,5.13,8,2.13,3.64,4,7.42,6.14,11.08,1.22,2.14,2.69,4.13,3.92,6.25,2,3.53,3.93,7.12,5.94,10.65.66,1.16,1.57,2.17,2.23,3.32,1.43,2.51,2.76,5.07,4.17,7.59.54,1,1.22,1.86,1.77,2.83.76,1.35,1.43,2.74,2.18,4.09,1.36,2.46,2.75,4.91,4.3,7.67-2.1.87-3.92,1.51-5.64,2.35-3,1.46-5.94,3-8.92,4.56-1.41.72-2.84,1.37-4.26,2-3.58,1.71-7.15,3.43-10.74,5.13-4.41,2.1-8.85,4.15-13.23,6.31a2.4,2.4,0,0,0-1.15,1.77c0,.51.73,1.21,1.31,1.49,2.25,1.12,4.56,2.13,6.87,3.15,1.68.74,3.42,1.35,5.07,2.14,2.83,1.37,5.58,2.88,8.41,4.23,3.29,1.59,6.65,3,9.94,4.61,3.63,1.74,7.18,3.62,10.82,5.32,1,.47,1.37.85.77,1.85-1.63,2.68-3.31,5.34-4.85,8.07-3,5.39-6,10.84-9,16.24-1.66,3-3.4,5.9-5.1,8.84C51,197,49.9,199,48.77,200.84c-2.23,3.76-4.37,7.57-6.77,11.22-1.73,2.63-2.21,6-4.81,8.09-.12.1-.15.3-.23.45-1.24,2.3-2.4,4.65-3.73,6.9s-3,4.64-4.52,7q-5.16,8.16-10.3,16.34c-2.06,3.27-4.05,6.59-6.15,9.85-2.51,3.91-5.14,7.75-7.6,11.7-.42.66-.2,1.71-.28,2.59.9-.1,2,.08,2.67-.35,2.42-1.51,4.71-3.22,7-4.87,1-.71,1.88-1.85,3-2.11,2.7-.63,4.13-3.15,6.85-3.91,2.47-.7,4.58-2.67,6.82-4.12.54-.35.94-.94,1.5-1.26,3.48-2,7-4,10.46-6,1.89-1.14,3.59-2.58,5.47-3.74,2.49-1.55,5.09-2.95,7.61-4.46.55-.33.94-1.2,1.47-1.27,2.56-.31,4.3-2.07,6.37-3.27,3.26-1.89,6.64-3.56,9.89-5.48,5.23-3.08,10.36-6.31,15.58-9.41,2.53-1.5,5.15-2.85,7.75-4.23,4.46-2.38,9-4.7,13.4-7.1,2.48-1.33,4.9-2.77,7.35-4.15,1.2-.67,2-.74,2.73.83,1.43,3.2,3.1,6.28,4.66,9.41s3.24,6.36,4.77,9.58c2,4.13,3.83,8.31,5.75,12.46,1.32,2.85,2.62,5.72,4.06,8.51a3.43,3.43,0,0,0,2,1.7c.48.11,1.41-.76,1.78-1.4.86-1.52,1.46-3.18,2.24-4.75,2.53-5.06,5.12-10.08,7.62-15.15,1.41-2.88,2.64-5.85,4-8.74,1.95-4,4-8.06,6-12.07.19-.39.72-1,.94-.92a13.79,13.79,0,0,1,3.24,1.23c3.54,2,7,4.19,10.56,6.19,2.85,1.61,5.83,3,8.68,4.59,4.11,2.29,8.15,4.72,12.24,7,2.91,1.65,5.91,3.14,8.79,4.84,3.86,2.27,7.61,4.71,11.45,7,2.53,1.51,5.18,2.82,7.7,4.33,3.65,2.2,7.18,4.59,10.84,6.76,4.27,2.52,8.63,4.9,12.94,7.35a5,5,0,0,1,.53.41,34.82,34.82,0,0,0,3.17,2.41c3.73,2.24,7.55,4.34,11.27,6.59,4.05,2.45,8,5,12,7.51a1.25,1.25,0,0,0,1.16,0,1.48,1.48,0,0,0,.44-1.25A11.39,11.39,0,0,0,278,271.24ZM141.73,177.81A38.83,38.83,0,1,1,180.56,139,38.83,38.83,0,0,1,141.73,177.81Z"/><circle class="cls-1" cx="141.73" cy="138.98" r="24.97"/></svg>