<svg id="圖層_1" data-name="圖層 1" xmlns="http://www.w3.org/2000/svg" viewBox="0 0 283.46 283.46"><defs><style>.cls-1{fill:#fff;}</style></defs><path class="cls-1" d="M141.73,10A133.36,133.36,0,1,0,275.09,143.36,133.36,133.36,0,0,0,141.73,10ZM89.87,49.87a41.7,41.7,0,1,1-41.7,41.7A41.7,41.7,0,0,1,89.87,49.87Zm84.22,200.91a96.87,96.87,0,0,0,10.92-9.4c20.5-20.5,28.35-45.89,17.53-56.71s-36.21-3-56.71,17.52c-.48.49-.92,1-1.39,1.48-.47-.49-.92-1-1.4-1.48-20.5-20.49-45.88-28.34-56.7-17.52s-3,36.21,17.52,56.71a97,97,0,0,0,11.75,10c-34.47-7.6-59.31-28.9-59.31-54,0-31.47,39-57,87.18-57s87.17,25.52,87.17,57C230.65,221.84,207.13,242.68,174.09,250.78Zm23.49-117.51a41.7,41.7,0,1,1,41.7-41.7A41.7,41.7,0,0,1,197.58,133.27Z"/><path class="cls-1" d="M89.87,100.86a8.4,8.4,0,1,0-8.4-8.4A8.4,8.4,0,0,0,89.87,100.86Z"/><path class="cls-1" d="M198.71,84.07a8.4,8.4,0,1,0,8.4,8.39A8.39,8.39,0,0,0,198.71,84.07Z"/></svg>